<svg width="512" height="512" viewBox="0 0 512 512" xmlns="http://www.w3.org/2000/svg">
  <defs>
    <radialGradient id="rg" cx="50%" cy="50%" r="70%">
      <stop offset="0%" stop-color="#7CF7D4"></stop>
      <stop offset="100%" stop-color="#68A0FF"></stop>
    </radialGradient>
  </defs>
  <circle cx="256" cy="256" r="230" fill="url(#rg)"></circle>
  <!-- Mic symbol -->
  <g transform="translate(206,160)" fill="#0A1020">
    <rect x="30" y="0" width="40" height="120" rx="20"></rect>
    <rect x="0" y="110" width="100" height="20" rx="10"></rect>
    <rect x="40" y="130" width="20" height="50" rx="10"></rect>
    <rect x="-10" y="190" width="120" height="16" rx="8" opacity="0.7"></rect>
  </g>
  <!-- Tiny waveform under -->
  <g transform="translate(136,360)" opacity="0.35" fill="#0A1020">
    <rect x="0" y="-10" width="12" height="20" rx="6"></rect>
    <rect x="22" y="-20" width="12" height="40" rx="6"></rect>
    <rect x="44" y="-34" width="12" height="68" rx="6"></rect>
    <rect x="66" y="-46" width="12" height="92" rx="6"></rect>
    <rect x="88" y="-34" width="12" height="68" rx="6"></rect>
    <rect x="110" y="-20" width="12" height="40" rx="6"></rect>
    <rect x="132" y="-10" width="12" height="20" rx="6"></rect>
  </g>
</svg>
